STARTFONT 2.1
FONT -HP-Sung-Medium-R-Normal--18-180-75-75-C-80-HP-TChinese15
SIZE 18 75 75
FONTBOUNDINGBOX 8 18 0 -2

STARTPROPERTIES 23
FONTNAME_REGISTRY ""
FOUNDRY "HP"
FAMILY_NAME "Sung"
WEIGHT_NAME "Medium"
SLANT "R"
SETWIDTH_NAME "Normal"
ADD_STYLE_NAME ""
PIXEL_SIZE 18
POINT_SIZE 180
RESOLUTION_X 75
RESOLUTION_Y 75
SPACING "C"
AVERAGE_WIDTH 80
CHARSET_REGISTRY "HP"
CHARSET_ENCODING "TChinese15"
COPYRIGHT "Copyright (c) 1994 Hewlett-Packard Company."
_HP_ASXVERSION "@(#) ASX 3.00 $Revision: 13.9 $ sung18a"
WEIGHT 10
X_HEIGHT 16
QUAD_WIDTH 8
DEFAULT_CHAR 32
FONT_DESCENT 2
FONT_ASCENT 16
ENDPROPERTIES

CHARS 256

STARTCHAR iso0
ENCODING 0
SWIDTH 427 0
DWIDTH 8 0
BBX 8 18 0 -2
BITMAP
00
00
00
48
68
58
48
48
00
12
12
12
12
0C
00
00
00
00
ENDCHAR

STARTCHAR iso1
ENCODING 1
SWIDTH 427 0
DWIDTH 8 0
BBX 8 18 0 -2
BITMAP
00
00
00
38
40
30
08
70
00
12
12
1E
12
12
00
00
00
00
ENDCHAR

STARTCHAR iso2
ENCODING 2
SWIDTH 427 0
DWIDTH 8 0
BBX 8 18 0 -2
BITMAP
00
00
00
38
40
30
08
70
00
22
14
08
14
22
00
00
00
00
ENDCHAR

STARTCHAR iso3
ENCODING 3
SWIDTH 427 0
DWIDTH 8 0
BBX 8 18 0 -2
BITMAP
00
00
00
78
40
70
40
78
00
22
14
08
14
22
00
00
00
00
ENDCHAR

STARTCHAR iso4
ENCODING 4
SWIDTH 427 0
DWIDTH 8 0
BBX 8 18 0 -2
BITMAP
00
00
00
78
40
70
40
78
00
3E
08
08
08
08
00
00
00
00
ENDCHAR

STARTCHAR iso5
ENCODING 5
SWIDTH 427 0
DWIDTH 8 0
BBX 8 18 0 -2
BITMAP
00
00
00
78
40
70
40
78
00
1C
22
22
2A
1C
04
00
00
00
ENDCHAR

STARTCHAR iso6
ENCODING 6
SWIDTH 427 0
DWIDTH 8 0
BBX 8 18 0 -2
BITMAP
00
00
00
30
48
78
48
48
00
12
14
18
14
12
00
00
00
00
ENDCHAR

STARTCHAR iso7
ENCODING 7
SWIDTH 427 0
DWIDTH 8 0
BBX 8 18 0 -2
BITMAP
00
00
00
00
38
44
44
44
44
44
44
FE
10
00
00
00
00
00
ENDCHAR

STARTCHAR iso8
ENCODING 8
SWIDTH 427 0
DWIDTH 8 0
BBX 8 18 0 -2
BITMAP
00
00
00
70
48
70
48
70
00
0E
10
0C
02
1C
00
00
00
00
ENDCHAR

STARTCHAR iso9
ENCODING 9
SWIDTH 427 0
DWIDTH 8 0
BBX 8 18 0 -2
BITMAP
00
00
00
48
48
78
48
48
00
3E
08
08
08
08
00
00
00
00
ENDCHAR

STARTCHAR isoA
ENCODING 10
SWIDTH 427 0
DWIDTH 8 0
BBX 8 18 0 -2
BITMAP
00
00
00
40
40
40
40
78
00
1E
10
1C
10
10
00
00
00
00
ENDCHAR

STARTCHAR isoB
ENCODING 11
SWIDTH 427 0
DWIDTH 8 0
BBX 8 18 0 -2
BITMAP
00
00
00
44
44
28
28
10
00
3E
08
08
08
08
00
00
00
00
ENDCHAR

STARTCHAR isoC
ENCODING 12
SWIDTH 427 0
DWIDTH 8 0
BBX 8 18 0 -2
BITMAP
00
00
00
78
40
70
40
40
00
1E
10
1C
10
10
00
00
00
00
ENDCHAR

STARTCHAR isoD
ENCODING 13
SWIDTH 427 0
DWIDTH 8 0
BBX 8 18 0 -2
BITMAP
00
00
00
38
40
40
40
38
00
1C
12
1C
14
12
00
00
00
00
ENDCHAR

STARTCHAR isoE
ENCODING 14
SWIDTH 427 0
DWIDTH 8 0
BBX 8 18 0 -2
BITMAP
00
00
00
38
40
30
08
70
00
0C
12
12
12
0C
00
00
00
00
ENDCHAR

STARTCHAR isoF
ENCODING 15
SWIDTH 427 0
DWIDTH 8 0
BBX 8 18 0 -2
BITMAP
00
00
00
38
40
30
08
70
00
0E
04
04
04
0E
00
00
00
00
ENDCHAR

STARTCHAR iso10
ENCODING 16
SWIDTH 427 0
DWIDTH 8 0
BBX 8 18 0 -2
BITMAP
00
00
00
70
48
48
48
70
00
10
10
10
10
1E
00
00
00
00
ENDCHAR

STARTCHAR iso11
ENCODING 17
SWIDTH 427 0
DWIDTH 8 0
BBX 8 18 0 -2
BITMAP
00
00
00
70
48
48
48
70
00
04
0C
04
04
0E
00
00
00
00
ENDCHAR

STARTCHAR iso12
ENCODING 18
SWIDTH 427 0
DWIDTH 8 0
BBX 8 18 0 -2
BITMAP
00
00
00
70
48
48
48
70
0C
12
02
0C
10
1E
00
00
00
00
ENDCHAR

STARTCHAR iso13
ENCODING 19
SWIDTH 427 0
DWIDTH 8 0
BBX 8 18 0 -2
BITMAP
00
00
00
70
48
48
48
70
00
1C
02
0C
02
1C
00
00
00
00
ENDCHAR

STARTCHAR iso14
ENCODING 20
SWIDTH 427 0
DWIDTH 8 0
BBX 8 18 0 -2
BITMAP
00
00
00
70
48
48
48
70
00
14
14
1E
04
04
00
00
00
00
ENDCHAR

STARTCHAR iso15
ENCODING 21
SWIDTH 427 0
DWIDTH 8 0
BBX 8 18 0 -2
BITMAP
00
00
00
48
68
58
48
48
00
12
14
18
14
12
00
00
00
00
ENDCHAR

STARTCHAR iso16
ENCODING 22
SWIDTH 427 0
DWIDTH 8 0
BBX 8 18 0 -2
BITMAP
00
00
00
38
40
30
08
70
00
22
14
08
08
08
00
00
00
00
ENDCHAR

STARTCHAR iso17
ENCODING 23
SWIDTH 427 0
DWIDTH 8 0
BBX 8 18 0 -2
BITMAP
00
00
00
78
40
70
40
78
00
1C
12
1C
12
1C
00
00
00
00
ENDCHAR

STARTCHAR iso18
ENCODING 24
SWIDTH 427 0
DWIDTH 8 0
BBX 8 18 0 -2
BITMAP
00
00
00
38
40
40
40
38
00
12
1A
16
12
12
00
00
00
00
ENDCHAR

STARTCHAR iso19
ENCODING 25
SWIDTH 427 0
DWIDTH 8 0
BBX 8 18 0 -2
BITMAP
00
00
00
78
40
70
40
78
00
22
36
2A
22
22
00
00
00
00
ENDCHAR

STARTCHAR iso1A
ENCODING 26
SWIDTH 427 0
DWIDTH 8 0
BBX 8 18 0 -2
BITMAP
00
00
00
38
40
30
08
70
00
1C
12
1C
12
1C
00
00
00
00
ENDCHAR

STARTCHAR iso1B
ENCODING 27
SWIDTH 427 0
DWIDTH 8 0
BBX 8 18 0 -2
BITMAP
00
00
00
78
40
70
40
78
00
0E
10
10
10
0E
00
00
00
00
ENDCHAR

STARTCHAR iso1C
ENCODING 28
SWIDTH 427 0
DWIDTH 8 0
BBX 8 18 0 -2
BITMAP
00
00
00
78
40
70
40
40
00
0E
10
0C
02
1C
00
00
00
00
ENDCHAR

STARTCHAR iso1D
ENCODING 29
SWIDTH 427 0
DWIDTH 8 0
BBX 8 18 0 -2
BITMAP
00
00
00
38
40
58
48
38
00
0E
10
0C
02
1C
00
00
00
00
ENDCHAR

STARTCHAR iso1E
ENCODING 30
SWIDTH 427 0
DWIDTH 8 0
BBX 8 18 0 -2
BITMAP
00
00
00
70
48
70
50
48
00
0E
10
0C
02
1C
00
00
00
00
ENDCHAR

STARTCHAR iso1F
ENCODING 31
SWIDTH 427 0
DWIDTH 8 0
BBX 8 18 0 -2
BITMAP
00
00
00
48
48
48
48
30
00
0E
10
0C
02
1C
00
00
00
00
ENDCHAR

STARTCHAR iso20
ENCODING 32
SWIDTH 427 0
DWIDTH 8 0
BBX 8 18 0 -2
BITMAP
00
00
00
00
00
00
00
00
00
00
00
00
00
00
00
00
00
00
ENDCHAR

STARTCHAR iso21
ENCODING 33
SWIDTH 427 0
DWIDTH 8 0
BBX 8 18 0 -2
BITMAP
00
08
1C
1C
1C
1C
1C
1C
08
08
08
00
00
08
1C
08
00
00
ENDCHAR

STARTCHAR iso22
ENCODING 34
SWIDTH 427 0
DWIDTH 8 0
BBX 8 18 0 -2
BITMAP
00
00
00
36
36
12
24
00
00
00
00
00
00
00
00
00
00
00
ENDCHAR

STARTCHAR iso23
ENCODING 35
SWIDTH 427 0
DWIDTH 8 0
BBX 8 18 0 -2
BITMAP
00
00
00
24
24
24
7E
24
24
24
24
7E
24
24
24
00
00
00
ENDCHAR

STARTCHAR iso24
ENCODING 36
SWIDTH 427 0
DWIDTH 8 0
BBX 8 18 0 -2
BITMAP
00
00
10
38
54
54
50
30
18
14
12
12
52
54
38
10
00
00
ENDCHAR

STARTCHAR iso25
ENCODING 37
SWIDTH 427 0
DWIDTH 8 0
BBX 8 18 0 -2
BITMAP
00
00
02
32
4C
4C
38
08
08
10
1C
32
32
4C
40
00
00
00
ENDCHAR

STARTCHAR iso26
ENCODING 38
SWIDTH 427 0
DWIDTH 8 0
BBX 8 18 0 -2
BITMAP
00
00
00
30
48
48
30
30
10
28
4A
44
44
4A
30
00
00
00
ENDCHAR

STARTCHAR iso27
ENCODING 39
SWIDTH 427 0
DWIDTH 8 0
BBX 8 18 0 -2
BITMAP
00
00
00
18
18
08
10
00
00
00
00
00
00
00
00
00
00
00
ENDCHAR

STARTCHAR iso28
ENCODING 40
SWIDTH 427 0
DWIDTH 8 0
BBX 8 18 0 -2
BITMAP
00
02
04
08
08
10
10
10
10
10
10
10
08
08
04
02
00
00
ENDCHAR

STARTCHAR iso29
ENCODING 41
SWIDTH 427 0
DWIDTH 8 0
BBX 8 18 0 -2
BITMAP
00
20
10
08
08
04
04
04
04
04
04
04
08
08
10
20
00
00
ENDCHAR

STARTCHAR iso2A
ENCODING 42
SWIDTH 427 0
DWIDTH 8 0
BBX 8 18 0 -2
BITMAP
00
00
00
00
00
08
2A
1C
08
1C
2A
08
00
00
00
00
00
00
ENDCHAR

STARTCHAR iso2B
ENCODING 43
SWIDTH 427 0
DWIDTH 8 0
BBX 8 18 0 -2
BITMAP
00
00
00
00
00
08
08
08
3E
08
08
08
00
00
00
00
00
00
ENDCHAR

STARTCHAR iso2C
ENCODING 44
SWIDTH 427 0
DWIDTH 8 0
BBX 8 18 0 -2
BITMAP
00
00
00
00
00
00
00
00
00
00
00
00
00
30
30
10
20
00
ENDCHAR

STARTCHAR iso2D
ENCODING 45
SWIDTH 427 0
DWIDTH 8 0
BBX 8 18 0 -2
BITMAP
00
00
00
00
00
00
00
00
7E
00
00
00
00
00
00
00
00
00
ENDCHAR

STARTCHAR iso2E
ENCODING 46
SWIDTH 427 0
DWIDTH 8 0
BBX 8 18 0 -2
BITMAP
00
00
00
00
00
00
00
00
00
00
00
00
00
00
30
30
00
00
ENDCHAR

STARTCHAR iso2F
ENCODING 47
SWIDTH 427 0
DWIDTH 8 0
BBX 8 18 0 -2
BITMAP
00
00
02
02
04
04
04
08
08
10
10
10
20
20
00
00
00
00
ENDCHAR

STARTCHAR iso30
ENCODING 48
SWIDTH 427 0
DWIDTH 8 0
BBX 8 18 0 -2
BITMAP
00
00
00
18
24
24
42
42
42
42
42
42
24
24
18
00
00
00
ENDCHAR

STARTCHAR iso31
ENCODING 49
SWIDTH 427 0
DWIDTH 8 0
BBX 8 18 0 -2
BITMAP
00
00
00
08
18
28
08
08
08
08
08
08
08
08
1C
00
00
00
ENDCHAR

STARTCHAR iso32
ENCODING 50
SWIDTH 427 0
DWIDTH 8 0
BBX 8 18 0 -2
BITMAP
00
00
00
18
24
42
42
02
04
08
10
20
20
40
7E
00
00
00
ENDCHAR

STARTCHAR iso33
ENCODING 51
SWIDTH 427 0
DWIDTH 8 0
BBX 8 18 0 -2
BITMAP
00
00
00
18
24
42
42
04
18
04
02
02
42
24
18
00
00
00
ENDCHAR

STARTCHAR iso34
ENCODING 52
SWIDTH 427 0
DWIDTH 8 0
BBX 8 18 0 -2
BITMAP
00
00
00
04
0C
0C
14
14
24
24
44
7E
04
04
04
00
00
00
ENDCHAR

STARTCHAR iso35
ENCODING 53
SWIDTH 427 0
DWIDTH 8 0
BBX 8 18 0 -2
BITMAP
00
00
00
7E
40
40
40
58
64
42
02
02
02
44
38
00
00
00
ENDCHAR

STARTCHAR iso36
ENCODING 54
SWIDTH 427 0
DWIDTH 8 0
BBX 8 18 0 -2
BITMAP
00
00
00
18
24
42
40
40
58
64
42
42
42
24
18
00
00
00
ENDCHAR

STARTCHAR iso37
ENCODING 55
SWIDTH 427 0
DWIDTH 8 0
BBX 8 18 0 -2
BITMAP
00
00
00
7E
42
42
42
04
04
08
08
10
10
10
10
00
00
00
ENDCHAR

STARTCHAR iso38
ENCODING 56
SWIDTH 427 0
DWIDTH 8 0
BBX 8 18 0 -2
BITMAP
00
00
00
18
24
42
42
24
18
24
42
42
42
24
18
00
00
00
ENDCHAR

STARTCHAR iso39
ENCODING 57
SWIDTH 427 0
DWIDTH 8 0
BBX 8 18 0 -2
BITMAP
00
00
00
18
24
42
42
42
26
1A
02
02
42
24
18
00
00
00
ENDCHAR

STARTCHAR iso3A
ENCODING 58
SWIDTH 427 0
DWIDTH 8 0
BBX 8 18 0 -2
BITMAP
00
00
00
00
00
00
00
18
18
00
00
00
00
18
18
00
00
00
ENDCHAR

STARTCHAR iso3B
ENCODING 59
SWIDTH 427 0
DWIDTH 8 0
BBX 8 18 0 -2
BITMAP
00
00
00
00
00
00
00
18
18
00
00
00
00
18
18
08
10
00
ENDCHAR

STARTCHAR iso3C
ENCODING 60
SWIDTH 427 0
DWIDTH 8 0
BBX 8 18 0 -2
BITMAP
00
00
00
00
02
04
08
10
20
10
08
04
02
00
00
00
00
00
ENDCHAR

STARTCHAR iso3D
ENCODING 61
SWIDTH 427 0
DWIDTH 8 0
BBX 8 18 0 -2
BITMAP
00
00
00
00
00
00
7E
00
00
00
7E
00
00
00
00
00
00
00
ENDCHAR

STARTCHAR iso3E
ENCODING 62
SWIDTH 427 0
DWIDTH 8 0
BBX 8 18 0 -2
BITMAP
00
00
00
00
20
10
08
04
02
04
08
10
20
00
00
00
00
00
ENDCHAR

STARTCHAR iso3F
ENCODING 63
SWIDTH 427 0
DWIDTH 8 0
BBX 8 18 0 -2
BITMAP
00
00
00
18
24
42
42
04
08
08
08
00
08
1C
08
00
00
00
ENDCHAR

STARTCHAR iso40
ENCODING 64
SWIDTH 427 0
DWIDTH 8 0
BBX 8 18 0 -2
BITMAP
00
00
00
18
24
42
4A
56
56
56
56
56
4A
20
1E
00
00
00
ENDCHAR

STARTCHAR iso41
ENCODING 65
SWIDTH 427 0
DWIDTH 8 0
BBX 8 18 0 -2
BITMAP
00
00
00
18
18
18
18
24
24
24
24
7E
42
42
42
00
00
00
ENDCHAR

STARTCHAR iso42
ENCODING 66
SWIDTH 427 0
DWIDTH 8 0
BBX 8 18 0 -2
BITMAP
00
00
00
78
44
42
42
44
78
44
42
42
42
44
78
00
00
00
ENDCHAR

STARTCHAR iso43
ENCODING 67
SWIDTH 427 0
DWIDTH 8 0
BBX 8 18 0 -2
BITMAP
00
00
00
18
24
42
42
40
40
40
40
42
42
24
18
00
00
00
ENDCHAR

STARTCHAR iso44
ENCODING 68
SWIDTH 427 0
DWIDTH 8 0
BBX 8 18 0 -2
BITMAP
00
00
00
78
44
42
42
42
42
42
42
42
42
44
78
00
00
00
ENDCHAR

STARTCHAR iso45
ENCODING 69
SWIDTH 427 0
DWIDTH 8 0
BBX 8 18 0 -2
BITMAP
00
00
00
7E
40
40
40
40
7C
40
40
40
40
40
7E
00
00
00
ENDCHAR

STARTCHAR iso46
ENCODING 70
SWIDTH 427 0
DWIDTH 8 0
BBX 8 18 0 -2
BITMAP
00
00
00
7E
40
40
40
40
7C
40
40
40
40
40
40
00
00
00
ENDCHAR

STARTCHAR iso47
ENCODING 71
SWIDTH 427 0
DWIDTH 8 0
BBX 8 18 0 -2
BITMAP
00
00
00
1C
22
42
40
40
40
4E
42
42
42
26
1A
00
00
00
ENDCHAR

STARTCHAR iso48
ENCODING 72
SWIDTH 427 0
DWIDTH 8 0
BBX 8 18 0 -2
BITMAP
00
00
00
42
42
42
42
42
7E
42
42
42
42
42
42
00
00
00
ENDCHAR

STARTCHAR iso49
ENCODING 73
SWIDTH 427 0
DWIDTH 8 0
BBX 8 18 0 -2
BITMAP
00
00
00
3E
08
08
08
08
08
08
08
08
08
08
3E
00
00
00
ENDCHAR

STARTCHAR iso4A
ENCODING 74
SWIDTH 427 0
DWIDTH 8 0
BBX 8 18 0 -2
BITMAP
00
00
00
0E
04
04
04
04
04
04
04
04
44
44
38
00
00
00
ENDCHAR

STARTCHAR iso4B
ENCODING 75
SWIDTH 427 0
DWIDTH 8 0
BBX 8 18 0 -2
BITMAP
00
00
00
41
42
44
48
50
60
60
50
48
44
42
41
00
00
00
ENDCHAR

STARTCHAR iso4C
ENCODING 76
SWIDTH 427 0
DWIDTH 8 0
BBX 8 18 0 -2
BITMAP
00
00
00
40
40
40
40
40
40
40
40
40
40
40
7E
00
00
00
ENDCHAR

STARTCHAR iso4D
ENCODING 77
SWIDTH 427 0
DWIDTH 8 0
BBX 8 18 0 -2
BITMAP
00
00
00
42
42
66
66
66
5A
5A
5A
42
42
42
42
00
00
00
ENDCHAR

STARTCHAR iso4E
ENCODING 78
SWIDTH 427 0
DWIDTH 8 0
BBX 8 18 0 -2
BITMAP
00
00
00
42
62
62
52
52
52
4A
4A
4A
46
46
42
00
00
00
ENDCHAR

STARTCHAR iso4F
ENCODING 79
SWIDTH 427 0
DWIDTH 8 0
BBX 8 18 0 -2
BITMAP
00
00
00
18
24
42
42
42
42
42
42
42
42
24
18
00
00
00
ENDCHAR

STARTCHAR iso50
ENCODING 80
SWIDTH 427 0
DWIDTH 8 0
BBX 8 18 0 -2
BITMAP
00
00
00
78
44
42
42
42
44
78
40
40
40
40
40
00
00
00
ENDCHAR

STARTCHAR iso51
ENCODING 81
SWIDTH 427 0
DWIDTH 8 0
BBX 8 18 0 -2
BITMAP
00
00
00
18
24
42
42
42
42
42
42
5A
66
24
1A
02
00
00
ENDCHAR

STARTCHAR iso52
ENCODING 82
SWIDTH 427 0
DWIDTH 8 0
BBX 8 18 0 -2
BITMAP
00
00
00
78
44
42
42
42
44
78
50
48
48
44
42
00
00
00
ENDCHAR

STARTCHAR iso53
ENCODING 83
SWIDTH 427 0
DWIDTH 8 0
BBX 8 18 0 -2
BITMAP
00
00
00
18
24
42
42
20
18
04
02
42
42
24
18
00
00
00
ENDCHAR

STARTCHAR iso54
ENCODING 84
SWIDTH 427 0
DWIDTH 8 0
BBX 8 18 0 -2
BITMAP
00
00
00
7F
08
08
08
08
08
08
08
08
08
08
08
00
00
00
ENDCHAR

STARTCHAR iso55
ENCODING 85
SWIDTH 427 0
DWIDTH 8 0
BBX 8 18 0 -2
BITMAP
00
00
00
42
42
42
42
42
42
42
42
42
42
24
18
00
00
00
ENDCHAR

STARTCHAR iso56
ENCODING 86
SWIDTH 427 0
DWIDTH 8 0
BBX 8 18 0 -2
BITMAP
00
00
00
42
42
42
42
24
24
24
24
18
18
18
18
00
00
00
ENDCHAR

STARTCHAR iso57
ENCODING 87
SWIDTH 427 0
DWIDTH 8 0
BBX 8 18 0 -2
BITMAP
00
00
00
42
42
42
5A
5A
5A
5A
5A
24
24
24
24
00
00
00
ENDCHAR

STARTCHAR iso58
ENCODING 88
SWIDTH 427 0
DWIDTH 8 0
BBX 8 18 0 -2
BITMAP
00
00
00
42
42
24
24
18
18
18
18
24
24
42
42
00
00
00
ENDCHAR

STARTCHAR iso59
ENCODING 89
SWIDTH 427 0
DWIDTH 8 0
BBX 8 18 0 -2
BITMAP
00
00
00
41
41
41
22
22
14
14
08
08
08
08
08
00
00
00
ENDCHAR

STARTCHAR iso5A
ENCODING 90
SWIDTH 427 0
DWIDTH 8 0
BBX 8 18 0 -2
BITMAP
00
00
00
7E
02
04
04
08
08
10
10
20
20
40
7E
00
00
00
ENDCHAR

STARTCHAR iso5B
ENCODING 91
SWIDTH 427 0
DWIDTH 8 0
BBX 8 18 0 -2
BITMAP
00
00
3C
20
20
20
20
20
20
20
20
20
20
20
20
3C
00
00
ENDCHAR

STARTCHAR iso5C
ENCODING 92
SWIDTH 427 0
DWIDTH 8 0
BBX 8 18 0 -2
BITMAP
00
00
20
20
10
10
10
08
08
04
04
04
02
02
00
00
00
00
ENDCHAR

STARTCHAR iso5D
ENCODING 93
SWIDTH 427 0
DWIDTH 8 0
BBX 8 18 0 -2
BITMAP
00
00
3C
04
04
04
04
04
04
04
04
04
04
04
04
3C
00
00
ENDCHAR

STARTCHAR iso5E
ENCODING 94
SWIDTH 427 0
DWIDTH 8 0
BBX 8 18 0 -2
BITMAP
00
08
14
22
00
00
00
00
00
00
00
00
00
00
00
00
00
00
ENDCHAR

STARTCHAR iso5F
ENCODING 95
SWIDTH 427 0
DWIDTH 8 0
BBX 8 18 0 -2
BITMAP
00
00
00
00
00
00
00
00
00
00
00
00
00
00
00
00
7E
00
ENDCHAR

STARTCHAR iso60
ENCODING 96
SWIDTH 427 0
DWIDTH 8 0
BBX 8 18 0 -2
BITMAP
00
02
04
06
06
00
00
00
00
00
00
00
00
00
00
00
00
00
ENDCHAR

STARTCHAR iso61
ENCODING 97
SWIDTH 427 0
DWIDTH 8 0
BBX 8 18 0 -2
BITMAP
00
00
00
00
00
00
00
3C
42
02
3E
42
42
46
3B
00
00
00
ENDCHAR

STARTCHAR iso62
ENCODING 98
SWIDTH 427 0
DWIDTH 8 0
BBX 8 18 0 -2
BITMAP
00
00
00
40
40
40
40
58
64
42
42
42
42
64
58
00
00
00
ENDCHAR

STARTCHAR iso63
ENCODING 99
SWIDTH 427 0
DWIDTH 8 0
BBX 8 18 0 -2
BITMAP
00
00
00
00
00
00
00
18
24
42
40
40
42
24
18
00
00
00
ENDCHAR

STARTCHAR iso64
ENCODING 100
SWIDTH 427 0
DWIDTH 8 0
BBX 8 18 0 -2
BITMAP
00
00
00
02
02
02
02
1A
26
42
42
42
42
26
1A
00
00
00
ENDCHAR

STARTCHAR iso65
ENCODING 101
SWIDTH 427 0
DWIDTH 8 0
BBX 8 18 0 -2
BITMAP
00
00
00
00
00
00
00
18
24
42
7E
40
40
22
1C
00
00
00
ENDCHAR

STARTCHAR iso66
ENCODING 102
SWIDTH 427 0
DWIDTH 8 0
BBX 8 18 0 -2
BITMAP
00
00
0C
12
10
10
10
7C
10
10
10
10
10
10
10
00
00
00
ENDCHAR

STARTCHAR iso67
ENCODING 103
SWIDTH 427 0
DWIDTH 8 0
BBX 8 18 0 -2
BITMAP
00
00
00
00
00
00
00
1E
22
22
22
22
22
1E
02
22
1C
00
ENDCHAR

STARTCHAR iso68
ENCODING 104
SWIDTH 427 0
DWIDTH 8 0
BBX 8 18 0 -2
BITMAP
00
00
00
40
40
40
40
5C
62
42
42
42
42
42
42
00
00
00
ENDCHAR

STARTCHAR iso69
ENCODING 105
SWIDTH 427 0
DWIDTH 8 0
BBX 8 18 0 -2
BITMAP
00
00
00
00
18
00
00
38
08
08
08
08
08
08
1C
00
00
00
ENDCHAR

STARTCHAR iso6A
ENCODING 106
SWIDTH 427 0
DWIDTH 8 0
BBX 8 18 0 -2
BITMAP
00
00
00
00
0C
00
00
1C
04
04
04
04
04
04
24
24
18
00
ENDCHAR

STARTCHAR iso6B
ENCODING 107
SWIDTH 427 0
DWIDTH 8 0
BBX 8 18 0 -2
BITMAP
00
00
00
40
40
40
40
42
44
48
50
70
48
44
42
00
00
00
ENDCHAR

STARTCHAR iso6C
ENCODING 108
SWIDTH 427 0
DWIDTH 8 0
BBX 8 18 0 -2
BITMAP
00
00
00
18
08
08
08
08
08
08
08
08
08
08
1C
00
00
00
ENDCHAR

STARTCHAR iso6D
ENCODING 109
SWIDTH 427 0
DWIDTH 8 0
BBX 8 18 0 -2
BITMAP
00
00
00
00
00
00
00
52
6D
49
49
49
49
49
49
00
00
00
ENDCHAR

STARTCHAR iso6E
ENCODING 110
SWIDTH 427 0
DWIDTH 8 0
BBX 8 18 0 -2
BITMAP
00
00
00
00
00
00
00
2C
32
22
22
22
22
22
22
00
00
00
ENDCHAR

STARTCHAR iso6F
ENCODING 111
SWIDTH 427 0
DWIDTH 8 0
BBX 8 18 0 -2
BITMAP
00
00
00
00
00
00
00
18
24
42
42
42
42
24
18
00
00
00
ENDCHAR

STARTCHAR iso70
ENCODING 112
SWIDTH 427 0
DWIDTH 8 0
BBX 8 18 0 -2
BITMAP
00
00
00
00
00
00
00
58
64
42
42
42
42
64
58
40
40
00
ENDCHAR

STARTCHAR iso71
ENCODING 113
SWIDTH 427 0
DWIDTH 8 0
BBX 8 18 0 -2
BITMAP
00
00
00
00
00
00
00
1A
26
42
42
42
42
26
1A
02
02
00
ENDCHAR

STARTCHAR iso72
ENCODING 114
SWIDTH 427 0
DWIDTH 8 0
BBX 8 18 0 -2
BITMAP
00
00
00
00
00
00
00
2C
32
20
20
20
20
20
20
00
00
00
ENDCHAR

STARTCHAR iso73
ENCODING 115
SWIDTH 427 0
DWIDTH 8 0
BBX 8 18 0 -2
BITMAP
00
00
00
00
00
00
00
3C
42
40
3C
02
42
42
3C
00
00
00
ENDCHAR

STARTCHAR iso74
ENCODING 116
SWIDTH 427 0
DWIDTH 8 0
BBX 8 18 0 -2
BITMAP
00
00
00
00
10
10
10
7E
10
10
10
10
10
12
0C
00
00
00
ENDCHAR

STARTCHAR iso75
ENCODING 117
SWIDTH 427 0
DWIDTH 8 0
BBX 8 18 0 -2
BITMAP
00
00
00
00
00
00
00
22
22
22
22
22
22
26
1A
00
00
00
ENDCHAR

STARTCHAR iso76
ENCODING 118
SWIDTH 427 0
DWIDTH 8 0
BBX 8 18 0 -2
BITMAP
00
00
00
00
00
00
00
42
42
42
24
24
24
18
18
00
00
00
ENDCHAR

STARTCHAR iso77
ENCODING 119
SWIDTH 427 0
DWIDTH 8 0
BBX 8 18 0 -2
BITMAP
00
00
00
00
00
00
00
42
42
5A
5A
5A
24
24
24
00
00
00
ENDCHAR

STARTCHAR iso78
ENCODING 120
SWIDTH 427 0
DWIDTH 8 0
BBX 8 18 0 -2
BITMAP
00
00
00
00
00
00
00
42
42
24
18
18
24
42
42
00
00
00
ENDCHAR

STARTCHAR iso79
ENCODING 121
SWIDTH 427 0
DWIDTH 8 0
BBX 8 18 0 -2
BITMAP
00
00
00
00
00
00
00
42
42
42
42
46
3A
02
02
42
3C
00
ENDCHAR

STARTCHAR iso7A
ENCODING 122
SWIDTH 427 0
DWIDTH 8 0
BBX 8 18 0 -2
BITMAP
00
00
00
00
00
00
00
7E
02
04
08
10
20
40
7E
00
00
00
ENDCHAR

STARTCHAR iso7B
ENCODING 123
SWIDTH 427 0
DWIDTH 8 0
BBX 8 18 0 -2
BITMAP
00
02
04
08
08
08
08
10
20
10
08
08
08
08
04
02
00
00
ENDCHAR

STARTCHAR iso7C
ENCODING 124
SWIDTH 427 0
DWIDTH 8 0
BBX 8 18 0 -2
BITMAP
00
08
08
08
08
08
08
08
08
08
08
08
08
08
08
00
00
00
ENDCHAR

STARTCHAR iso7D
ENCODING 125
SWIDTH 427 0
DWIDTH 8 0
BBX 8 18 0 -2
BITMAP
00
20
10
08
08
08
08
04
02
04
08
08
08
08
10
20
00
00
ENDCHAR

STARTCHAR iso7E
ENCODING 126
SWIDTH 427 0
DWIDTH 8 0
BBX 8 18 0 -2
BITMAP
00
00
00
00
00
00
00
10
2A
04
00
00
00
00
00
00
00
00
ENDCHAR

STARTCHAR iso7F
ENCODING 127
SWIDTH 427 0
DWIDTH 8 0
BBX 8 18 0 -2
BITMAP
14
2A
14
2A
14
2A
14
2A
14
2A
14
2A
14
2A
14
2A
14
2A
ENDCHAR

STARTCHAR iso80
ENCODING 128
SWIDTH 427 0
DWIDTH 8 0
BBX 8 18 0 -2
BITMAP
00
00
00
30
48
30
48
30
00
0C
12
12
12
0C
00
00
00
00
ENDCHAR

STARTCHAR iso81
ENCODING 129
SWIDTH 427 0
DWIDTH 8 0
BBX 8 18 0 -2
BITMAP
00
00
00
30
48
30
48
30
00
04
0C
04
04
0E
00
00
00
00
ENDCHAR

STARTCHAR iso82
ENCODING 130
SWIDTH 427 0
DWIDTH 8 0
BBX 8 18 0 -2
BITMAP
00
00
00
30
48
30
48
30
00
0C
12
04
08
1E
00
00
00
00
ENDCHAR

STARTCHAR iso83
ENCODING 131
SWIDTH 427 0
DWIDTH 8 0
BBX 8 18 0 -2
BITMAP
00
00
00
30
48
30
48
30
00
1C
02
0C
02
1C
00
00
00
00
ENDCHAR

STARTCHAR iso84
ENCODING 132
SWIDTH 427 0
DWIDTH 8 0
BBX 8 18 0 -2
BITMAP
00
00
00
30
48
30
48
30
00
14
14
1E
04
04
00
00
00
00
ENDCHAR

STARTCHAR iso85
ENCODING 133
SWIDTH 427 0
DWIDTH 8 0
BBX 8 18 0 -2
BITMAP
00
00
00
30
48
30
48
30
00
1E
10
1C
02
1C
00
00
00
00
ENDCHAR

STARTCHAR iso86
ENCODING 134
SWIDTH 427 0
DWIDTH 8 0
BBX 8 18 0 -2
BITMAP
00
00
00
30
48
30
48
30
00
0C
10
1C
12
0C
00
00
00
00
ENDCHAR

STARTCHAR iso87
ENCODING 135
SWIDTH 427 0
DWIDTH 8 0
BBX 8 18 0 -2
BITMAP
00
00
00
30
48
30
48
30
00
1E
02
04
08
10
00
00
00
00
ENDCHAR

STARTCHAR iso88
ENCODING 136
SWIDTH 427 0
DWIDTH 8 0
BBX 8 18 0 -2
BITMAP
00
00
00
30
48
30
48
30
00
0C
12
0C
12
0C
00
00
00
00
ENDCHAR

STARTCHAR iso89
ENCODING 137
SWIDTH 427 0
DWIDTH 8 0
BBX 8 18 0 -2
BITMAP
00
00
00
30
48
30
48
30
00
0C
12
0E
02
0C
00
00
00
00
ENDCHAR

STARTCHAR iso8A
ENCODING 138
SWIDTH 427 0
DWIDTH 8 0
BBX 8 18 0 -2
BITMAP
00
00
00
30
48
30
48
30
00
0C
12
1E
12
12
00
00
00
00
ENDCHAR

STARTCHAR iso8B
ENCODING 139
SWIDTH 427 0
DWIDTH 8 0
BBX 8 18 0 -2
BITMAP
00
00
00
30
48
30
48
30
00
1C
12
1C
12
1C
00
00
00
00
ENDCHAR

STARTCHAR iso8C
ENCODING 140
SWIDTH 427 0
DWIDTH 8 0
BBX 8 18 0 -2
BITMAP
00
00
00
30
48
30
48
30
00
0E
10
10
10
0E
00
00
00
00
ENDCHAR

STARTCHAR iso8D
ENCODING 141
SWIDTH 427 0
DWIDTH 8 0
BBX 8 18 0 -2
BITMAP
00
00
00
30
48
30
48
30
00
1C
12
12
12
1C
00
00
00
00
ENDCHAR

STARTCHAR iso8E
ENCODING 142
SWIDTH 427 0
DWIDTH 8 0
BBX 8 18 0 -2
BITMAP
00
00
00
30
48
30
48
30
00
1E
10
1C
10
1E
00
00
00
00
ENDCHAR

STARTCHAR iso8F
ENCODING 143
SWIDTH 427 0
DWIDTH 8 0
BBX 8 18 0 -2
BITMAP
00
00
00
30
48
30
48
30
00
1E
10
1C
10
10
00
00
00
00
ENDCHAR

STARTCHAR iso90
ENCODING 144
SWIDTH 427 0
DWIDTH 8 0
BBX 8 18 0 -2
BITMAP
00
00
00
30
48
38
08
30
00
0C
12
12
12
0C
00
00
00
00
ENDCHAR

STARTCHAR iso91
ENCODING 145
SWIDTH 427 0
DWIDTH 8 0
BBX 8 18 0 -2
BITMAP
00
00
00
30
48
38
08
30
00
04
0C
04
04
0E
00
00
00
00
ENDCHAR

STARTCHAR iso92
ENCODING 146
SWIDTH 427 0
DWIDTH 8 0
BBX 8 18 0 -2
BITMAP
00
00
00
30
48
38
08
30
00
0C
12
04
08
1E
00
00
00
00
ENDCHAR

STARTCHAR iso93
ENCODING 147
SWIDTH 427 0
DWIDTH 8 0
BBX 8 18 0 -2
BITMAP
00
00
00
30
48
38
08
30
00
1C
02
0C
02
1C
00
00
00
00
ENDCHAR

STARTCHAR iso94
ENCODING 148
SWIDTH 427 0
DWIDTH 8 0
BBX 8 18 0 -2
BITMAP
00
00
00
30
48
38
08
30
00
14
14
1E
04
04
00
00
00
00
ENDCHAR

STARTCHAR iso95
ENCODING 149
SWIDTH 427 0
DWIDTH 8 0
BBX 8 18 0 -2
BITMAP
00
00
00
30
48
38
08
30
00
1E
10
1C
02
1C
00
00
00
00
ENDCHAR

STARTCHAR iso96
ENCODING 150
SWIDTH 427 0
DWIDTH 8 0
BBX 8 18 0 -2
BITMAP
00
00
00
30
48
38
08
30
00
0C
10
1C
12
0C
00
00
00
00
ENDCHAR

STARTCHAR iso97
ENCODING 151
SWIDTH 427 0
DWIDTH 8 0
BBX 8 18 0 -2
BITMAP
00
00
00
30
48
38
08
30
00
1E
02
04
08
10
00
00
00
00
ENDCHAR

STARTCHAR iso98
ENCODING 152
SWIDTH 427 0
DWIDTH 8 0
BBX 8 18 0 -2
BITMAP
00
00
00
30
48
38
08
30
00
0C
12
0C
12
0C
00
00
00
00
ENDCHAR

STARTCHAR iso99
ENCODING 153
SWIDTH 427 0
DWIDTH 8 0
BBX 8 18 0 -2
BITMAP
00
00
00
30
48
38
08
30
00
0C
12
0E
02
0C
00
00
00
00
ENDCHAR

STARTCHAR iso9A
ENCODING 154
SWIDTH 427 0
DWIDTH 8 0
BBX 8 18 0 -2
BITMAP
00
00
00
30
48
38
08
30
00
0C
12
1E
12
12
00
00
00
00
ENDCHAR

STARTCHAR iso9B
ENCODING 155
SWIDTH 427 0
DWIDTH 8 0
BBX 8 18 0 -2
BITMAP
00
00
00
30
48
38
08
30
00
1C
12
1C
12
1C
00
00
00
00
ENDCHAR

STARTCHAR iso9C
ENCODING 156
SWIDTH 427 0
DWIDTH 8 0
BBX 8 18 0 -2
BITMAP
00
00
00
30
48
38
08
30
00
0E
10
10
10
0E
00
00
00
00
ENDCHAR

STARTCHAR iso9D
ENCODING 157
SWIDTH 427 0
DWIDTH 8 0
BBX 8 18 0 -2
BITMAP
00
00
00
30
48
38
08
30
00
1C
12
12
12
1C
00
00
00
00
ENDCHAR

STARTCHAR iso9E
ENCODING 158
SWIDTH 427 0
DWIDTH 8 0
BBX 8 18 0 -2
BITMAP
00
00
00
30
48
38
08
30
00
1E
10
1C
10
1E
00
00
00
00
ENDCHAR

STARTCHAR iso9F
ENCODING 159
SWIDTH 427 0
DWIDTH 8 0
BBX 8 18 0 -2
BITMAP
00
00
00
30
48
38
08
30
00
1E
10
1C
10
10
00
00
00
00
ENDCHAR

STARTCHAR isoA0
ENCODING 160
SWIDTH 427 0
DWIDTH 8 0
BBX 8 18 0 -2
BITMAP
00
00
00
30
48
78
48
48
00
0C
12
12
12
0C
00
00
00
00
ENDCHAR

STARTCHAR isoA1
ENCODING 161
SWIDTH 427 0
DWIDTH 8 0
BBX 8 18 0 -2
BITMAP
00
00
00
30
48
78
48
48
00
04
0C
04
04
0E
00
00
00
00
ENDCHAR

STARTCHAR isoA2
ENCODING 162
SWIDTH 427 0
DWIDTH 8 0
BBX 8 18 0 -2
BITMAP
00
00
00
30
48
78
48
48
00
0C
12
04
08
1E
00
00
00
00
ENDCHAR

STARTCHAR isoA3
ENCODING 163
SWIDTH 427 0
DWIDTH 8 0
BBX 8 18 0 -2
BITMAP
00
00
00
30
48
78
48
48
00
1C
02
0C
02
1C
00
00
00
00
ENDCHAR

STARTCHAR isoA4
ENCODING 164
SWIDTH 427 0
DWIDTH 8 0
BBX 8 18 0 -2
BITMAP
00
00
00
30
48
78
48
48
00
14
14
1E
04
04
00
00
00
00
ENDCHAR

STARTCHAR isoA5
ENCODING 165
SWIDTH 427 0
DWIDTH 8 0
BBX 8 18 0 -2
BITMAP
00
00
00
30
48
78
48
48
00
1E
10
1C
02
1C
00
00
00
00
ENDCHAR

STARTCHAR isoA6
ENCODING 166
SWIDTH 427 0
DWIDTH 8 0
BBX 8 18 0 -2
BITMAP
00
00
00
30
48
78
48
48
00
0C
10
1C
12
0C
00
00
00
00
ENDCHAR

STARTCHAR isoA7
ENCODING 167
SWIDTH 427 0
DWIDTH 8 0
BBX 8 18 0 -2
BITMAP
00
00
00
30
48
78
48
48
00
1E
02
04
08
10
00
00
00
00
ENDCHAR

STARTCHAR isoA8
ENCODING 168
SWIDTH 427 0
DWIDTH 8 0
BBX 8 18 0 -2
BITMAP
00
00
00
30
48
78
48
48
00
0C
12
0C
12
0C
00
00
00
00
ENDCHAR

STARTCHAR isoA9
ENCODING 169
SWIDTH 427 0
DWIDTH 8 0
BBX 8 18 0 -2
BITMAP
00
00
00
30
48
78
48
48
00
0C
12
0E
02
0C
00
00
00
00
ENDCHAR

STARTCHAR isoAA
ENCODING 170
SWIDTH 427 0
DWIDTH 8 0
BBX 8 18 0 -2
BITMAP
00
00
00
30
48
78
48
48
00
0C
12
1E
12
12
00
00
00
00
ENDCHAR

STARTCHAR isoAB
ENCODING 171
SWIDTH 427 0
DWIDTH 8 0
BBX 8 18 0 -2
BITMAP
00
00
00
30
48
78
48
48
00
1C
12
1C
12
1C
00
00
00
00
ENDCHAR

STARTCHAR isoAC
ENCODING 172
SWIDTH 427 0
DWIDTH 8 0
BBX 8 18 0 -2
BITMAP
00
00
00
30
48
78
48
48
00
0E
10
10
10
0E
00
00
00
00
ENDCHAR

STARTCHAR isoAD
ENCODING 173
SWIDTH 427 0
DWIDTH 8 0
BBX 8 18 0 -2
BITMAP
00
00
00
30
48
78
48
48
00
1C
12
12
12
1C
00
00
00
00
ENDCHAR

STARTCHAR isoAE
ENCODING 174
SWIDTH 427 0
DWIDTH 8 0
BBX 8 18 0 -2
BITMAP
00
00
00
30
48
78
48
48
00
1E
10
1C
10
1E
00
00
00
00
ENDCHAR

STARTCHAR isoAF
ENCODING 175
SWIDTH 427 0
DWIDTH 8 0
BBX 8 18 0 -2
BITMAP
00
00
00
30
48
78
48
48
00
1E
10
1C
10
10
00
00
00
00
ENDCHAR

STARTCHAR isoB0
ENCODING 176
SWIDTH 427 0
DWIDTH 8 0
BBX 8 18 0 -2
BITMAP
00
00
00
70
48
70
48
70
00
0C
12
12
12
0C
00
00
00
00
ENDCHAR

STARTCHAR isoB1
ENCODING 177
SWIDTH 427 0
DWIDTH 8 0
BBX 8 18 0 -2
BITMAP
00
00
00
70
48
70
48
70
00
04
0C
04
04
0E
00
00
00
00
ENDCHAR

STARTCHAR isoB2
ENCODING 178
SWIDTH 427 0
DWIDTH 8 0
BBX 8 18 0 -2
BITMAP
00
00
00
70
48
70
48
70
00
0C
12
04
08
1E
00
00
00
00
ENDCHAR

STARTCHAR isoB3
ENCODING 179
SWIDTH 427 0
DWIDTH 8 0
BBX 8 18 0 -2
BITMAP
00
00
00
70
48
70
48
70
00
1C
02
0C
02
1C
00
00
00
00
ENDCHAR

STARTCHAR isoB4
ENCODING 180
SWIDTH 427 0
DWIDTH 8 0
BBX 8 18 0 -2
BITMAP
00
00
00
70
48
70
48
70
00
14
14
1E
04
04
00
00
00
00
ENDCHAR

STARTCHAR isoB5
ENCODING 181
SWIDTH 427 0
DWIDTH 8 0
BBX 8 18 0 -2
BITMAP
00
00
00
70
48
70
48
70
00
1E
10
1C
02
1C
00
00
00
00
ENDCHAR

STARTCHAR isoB6
ENCODING 182
SWIDTH 427 0
DWIDTH 8 0
BBX 8 18 0 -2
BITMAP
00
00
00
70
48
70
48
70
00
0C
10
1C
12
0C
00
00
00
00
ENDCHAR

STARTCHAR isoB7
ENCODING 183
SWIDTH 427 0
DWIDTH 8 0
BBX 8 18 0 -2
BITMAP
00
00
00
70
48
70
48
70
00
1E
02
04
08
10
00
00
00
00
ENDCHAR

STARTCHAR isoB8
ENCODING 184
SWIDTH 427 0
DWIDTH 8 0
BBX 8 18 0 -2
BITMAP
00
00
00
70
48
70
48
70
00
0C
12
0C
12
0C
00
00
00
00
ENDCHAR

STARTCHAR isoB9
ENCODING 185
SWIDTH 427 0
DWIDTH 8 0
BBX 8 18 0 -2
BITMAP
00
00
00
70
48
70
48
70
00
0C
12
0E
02
0C
00
00
00
00
ENDCHAR

STARTCHAR isoBA
ENCODING 186
SWIDTH 427 0
DWIDTH 8 0
BBX 8 18 0 -2
BITMAP
00
00
00
70
48
70
48
70
00
0C
12
1E
12
12
00
00
00
00
ENDCHAR

STARTCHAR isoBB
ENCODING 187
SWIDTH 427 0
DWIDTH 8 0
BBX 8 18 0 -2
BITMAP
00
00
00
70
48
70
48
70
00
1C
12
1C
12
1C
00
00
00
00
ENDCHAR

STARTCHAR isoBC
ENCODING 188
SWIDTH 427 0
DWIDTH 8 0
BBX 8 18 0 -2
BITMAP
00
00
00
70
48
70
48
70
00
0E
10
10
10
0E
00
00
00
00
ENDCHAR

STARTCHAR isoBD
ENCODING 189
SWIDTH 427 0
DWIDTH 8 0
BBX 8 18 0 -2
BITMAP
00
00
00
70
48
70
48
70
00
1C
12
12
12
1C
00
00
00
00
ENDCHAR

STARTCHAR isoBE
ENCODING 190
SWIDTH 427 0
DWIDTH 8 0
BBX 8 18 0 -2
BITMAP
00
00
00
70
48
70
48
70
00
1E
10
1C
10
1E
00
00
00
00
ENDCHAR

STARTCHAR isoBF
ENCODING 191
SWIDTH 427 0
DWIDTH 8 0
BBX 8 18 0 -2
BITMAP
00
00
00
70
48
70
48
70
00
1E
10
1C
10
10
00
00
00
00
ENDCHAR

STARTCHAR isoC0
ENCODING 192
SWIDTH 427 0
DWIDTH 8 0
BBX 8 18 0 -2
BITMAP
00
00
00
38
40
40
40
38
00
0C
12
12
12
0C
00
00
00
00
ENDCHAR

STARTCHAR isoC1
ENCODING 193
SWIDTH 427 0
DWIDTH 8 0
BBX 8 18 0 -2
BITMAP
00
00
00
38
40
40
40
38
00
04
0C
04
04
0E
00
00
00
00
ENDCHAR

STARTCHAR isoC2
ENCODING 194
SWIDTH 427 0
DWIDTH 8 0
BBX 8 18 0 -2
BITMAP
00
00
00
38
40
40
40
38
00
0C
12
04
08
1E
00
00
00
00
ENDCHAR

STARTCHAR isoC3
ENCODING 195
SWIDTH 427 0
DWIDTH 8 0
BBX 8 18 0 -2
BITMAP
00
00
00
38
40
40
40
38
00
1C
02
0C
02
1C
00
00
00
00
ENDCHAR

STARTCHAR isoC4
ENCODING 196
SWIDTH 427 0
DWIDTH 8 0
BBX 8 18 0 -2
BITMAP
00
00
00
38
40
40
40
38
00
14
14
1E
04
04
00
00
00
00
ENDCHAR

STARTCHAR isoC5
ENCODING 197
SWIDTH 427 0
DWIDTH 8 0
BBX 8 18 0 -2
BITMAP
00
00
00
38
40
40
40
38
00
1E
10
1C
02
1C
00
00
00
00
ENDCHAR

STARTCHAR isoC6
ENCODING 198
SWIDTH 427 0
DWIDTH 8 0
BBX 8 18 0 -2
BITMAP
00
00
00
38
40
40
40
38
00
0C
10
1C
12
0C
00
00
00
00
ENDCHAR

STARTCHAR isoC7
ENCODING 199
SWIDTH 427 0
DWIDTH 8 0
BBX 8 18 0 -2
BITMAP
00
00
00
38
40
40
40
38
00
1E
02
04
08
10
00
00
00
00
ENDCHAR

STARTCHAR isoC8
ENCODING 200
SWIDTH 427 0
DWIDTH 8 0
BBX 8 18 0 -2
BITMAP
00
00
00
38
40
40
40
38
00
0C
12
0C
12
0C
00
00
00
00
ENDCHAR

STARTCHAR isoC9
ENCODING 201
SWIDTH 427 0
DWIDTH 8 0
BBX 8 18 0 -2
BITMAP
00
00
00
38
40
40
40
38
00
0C
12
0E
02
0C
00
00
00
00
ENDCHAR

STARTCHAR isoCA
ENCODING 202
SWIDTH 427 0
DWIDTH 8 0
BBX 8 18 0 -2
BITMAP
00
00
00
38
40
40
40
38
00
0C
12
1E
12
12
00
00
00
00
ENDCHAR

STARTCHAR isoCB
ENCODING 203
SWIDTH 427 0
DWIDTH 8 0
BBX 8 18 0 -2
BITMAP
00
00
00
38
40
40
40
38
00
1C
12
1C
12
1C
00
00
00
00
ENDCHAR

STARTCHAR isoCC
ENCODING 204
SWIDTH 427 0
DWIDTH 8 0
BBX 8 18 0 -2
BITMAP
00
00
00
38
40
40
40
38
00
0E
10
10
10
0E
00
00
00
00
ENDCHAR

STARTCHAR isoCD
ENCODING 205
SWIDTH 427 0
DWIDTH 8 0
BBX 8 18 0 -2
BITMAP
00
00
00
38
40
40
40
38
00
1C
12
12
12
1C
00
00
00
00
ENDCHAR

STARTCHAR isoCE
ENCODING 206
SWIDTH 427 0
DWIDTH 8 0
BBX 8 18 0 -2
BITMAP
00
00
00
38
40
40
40
38
00
1E
10
1C
10
1E
00
00
00
00
ENDCHAR

STARTCHAR isoCF
ENCODING 207
SWIDTH 427 0
DWIDTH 8 0
BBX 8 18 0 -2
BITMAP
00
00
00
38
40
40
40
38
00
1E
10
1C
10
10
00
00
00
00
ENDCHAR

STARTCHAR isoD0
ENCODING 208
SWIDTH 427 0
DWIDTH 8 0
BBX 8 18 0 -2
BITMAP
00
00
00
70
48
48
48
70
00
0C
12
12
12
0C
00
00
00
00
ENDCHAR

STARTCHAR isoD1
ENCODING 209
SWIDTH 427 0
DWIDTH 8 0
BBX 8 18 0 -2
BITMAP
00
00
00
70
48
48
48
70
00
04
0C
04
04
0E
00
00
00
00
ENDCHAR

STARTCHAR isoD2
ENCODING 210
SWIDTH 427 0
DWIDTH 8 0
BBX 8 18 0 -2
BITMAP
00
00
00
70
48
48
48
70
00
0C
12
04
08
1E
00
00
00
00
ENDCHAR

STARTCHAR isoD3
ENCODING 211
SWIDTH 427 0
DWIDTH 8 0
BBX 8 18 0 -2
BITMAP
00
00
00
70
48
48
48
70
00
1C
02
0C
02
1C
00
00
00
00
ENDCHAR

STARTCHAR isoD4
ENCODING 212
SWIDTH 427 0
DWIDTH 8 0
BBX 8 18 0 -2
BITMAP
00
00
00
70
48
48
48
70
00
14
14
1E
04
04
00
00
00
00
ENDCHAR

STARTCHAR isoD5
ENCODING 213
SWIDTH 427 0
DWIDTH 8 0
BBX 8 18 0 -2
BITMAP
00
00
00
70
48
48
48
70
00
1E
10
1C
02
1C
00
00
00
00
ENDCHAR

STARTCHAR isoD6
ENCODING 214
SWIDTH 427 0
DWIDTH 8 0
BBX 8 18 0 -2
BITMAP
00
00
00
70
48
48
48
70
00
0C
10
1C
12
0C
00
00
00
00
ENDCHAR

STARTCHAR isoD7
ENCODING 215
SWIDTH 427 0
DWIDTH 8 0
BBX 8 18 0 -2
BITMAP
00
00
00
70
48
48
48
70
00
1E
02
04
08
10
00
00
00
00
ENDCHAR

STARTCHAR isoD8
ENCODING 216
SWIDTH 427 0
DWIDTH 8 0
BBX 8 18 0 -2
BITMAP
00
00
00
70
48
48
48
70
00
0C
12
0C
12
0C
00
00
00
00
ENDCHAR

STARTCHAR isoD9
ENCODING 217
SWIDTH 427 0
DWIDTH 8 0
BBX 8 18 0 -2
BITMAP
00
00
00
70
48
48
48
70
00
0C
12
0E
02
0C
00
00
00
00
ENDCHAR

STARTCHAR isoDA
ENCODING 218
SWIDTH 427 0
DWIDTH 8 0
BBX 8 18 0 -2
BITMAP
00
00
00
70
48
48
48
70
00
0C
12
1E
12
12
00
00
00
00
ENDCHAR

STARTCHAR isoDB
ENCODING 219
SWIDTH 427 0
DWIDTH 8 0
BBX 8 18 0 -2
BITMAP
00
00
00
70
48
48
48
70
00
1C
12
1C
12
1C
00
00
00
00
ENDCHAR

STARTCHAR isoDC
ENCODING 220
SWIDTH 427 0
DWIDTH 8 0
BBX 8 18 0 -2
BITMAP
00
00
00
70
48
48
48
70
00
0E
10
10
10
0E
00
00
00
00
ENDCHAR

STARTCHAR isoDD
ENCODING 221
SWIDTH 427 0
DWIDTH 8 0
BBX 8 18 0 -2
BITMAP
00
00
00
70
48
48
48
70
00
1C
12
12
12
1C
00
00
00
00
ENDCHAR

STARTCHAR isoDE
ENCODING 222
SWIDTH 427 0
DWIDTH 8 0
BBX 8 18 0 -2
BITMAP
00
00
00
70
48
48
48
70
00
1E
10
1C
10
1E
00
00
00
00
ENDCHAR

STARTCHAR isoDF
ENCODING 223
SWIDTH 427 0
DWIDTH 8 0
BBX 8 18 0 -2
BITMAP
00
00
00
70
48
48
48
70
00
1E
10
1C
10
10
00
00
00
00
ENDCHAR

STARTCHAR isoE0
ENCODING 224
SWIDTH 427 0
DWIDTH 8 0
BBX 8 18 0 -2
BITMAP
00
00
00
78
40
70
40
78
00
0C
12
12
12
0C
00
00
00
00
ENDCHAR

STARTCHAR isoE1
ENCODING 225
SWIDTH 427 0
DWIDTH 8 0
BBX 8 18 0 -2
BITMAP
00
00
00
78
40
70
40
78
00
04
0C
04
04
0E
00
00
00
00
ENDCHAR

STARTCHAR isoE2
ENCODING 226
SWIDTH 427 0
DWIDTH 8 0
BBX 8 18 0 -2
BITMAP
00
00
00
78
40
70
40
78
00
0C
12
04
08
1E
00
00
00
00
ENDCHAR

STARTCHAR isoE3
ENCODING 227
SWIDTH 427 0
DWIDTH 8 0
BBX 8 18 0 -2
BITMAP
00
00
00
78
40
70
40
78
00
1C
02
0C
02
1C
00
00
00
00
ENDCHAR

STARTCHAR isoE4
ENCODING 228
SWIDTH 427 0
DWIDTH 8 0
BBX 8 18 0 -2
BITMAP
00
00
00
78
40
70
40
78
00
14
14
1E
04
04
00
00
00
00
ENDCHAR

STARTCHAR isoE5
ENCODING 229
SWIDTH 427 0
DWIDTH 8 0
BBX 8 18 0 -2
BITMAP
00
00
00
78
40
70
40
78
00
1E
10
1C
02
1C
00
00
00
00
ENDCHAR

STARTCHAR isoE6
ENCODING 230
SWIDTH 427 0
DWIDTH 8 0
BBX 8 18 0 -2
BITMAP
00
00
00
78
40
70
40
78
00
0C
10
1C
12
0C
00
00
00
00
ENDCHAR

STARTCHAR isoE7
ENCODING 231
SWIDTH 427 0
DWIDTH 8 0
BBX 8 18 0 -2
BITMAP
00
00
00
78
40
70
40
78
00
1E
02
04
08
10
00
00
00
00
ENDCHAR

STARTCHAR isoE8
ENCODING 232
SWIDTH 427 0
DWIDTH 8 0
BBX 8 18 0 -2
BITMAP
00
00
00
78
40
70
40
78
00
0C
12
0C
12
0C
00
00
00
00
ENDCHAR

STARTCHAR isoE9
ENCODING 233
SWIDTH 427 0
DWIDTH 8 0
BBX 8 18 0 -2
BITMAP
00
00
00
78
40
70
40
78
00
0C
12
0E
02
0C
00
00
00
00
ENDCHAR

STARTCHAR isoEA
ENCODING 234
SWIDTH 427 0
DWIDTH 8 0
BBX 8 18 0 -2
BITMAP
00
00
00
78
40
70
40
78
00
0C
12
1E
12
12
00
00
00
00
ENDCHAR

STARTCHAR isoEB
ENCODING 235
SWIDTH 427 0
DWIDTH 8 0
BBX 8 18 0 -2
BITMAP
00
00
00
78
40
70
40
78
00
1C
12
1C
12
1C
00
00
00
00
ENDCHAR

STARTCHAR isoEC
ENCODING 236
SWIDTH 427 0
DWIDTH 8 0
BBX 8 18 0 -2
BITMAP
00
00
00
78
40
70
40
78
00
0E
10
10
10
0E
00
00
00
00
ENDCHAR

STARTCHAR isoED
ENCODING 237
SWIDTH 427 0
DWIDTH 8 0
BBX 8 18 0 -2
BITMAP
00
00
00
78
40
70
40
78
00
1C
12
12
12
1C
00
00
00
00
ENDCHAR

STARTCHAR isoEE
ENCODING 238
SWIDTH 427 0
DWIDTH 8 0
BBX 8 18 0 -2
BITMAP
00
00
00
78
40
70
40
78
00
1E
10
1C
10
1E
00
00
00
00
ENDCHAR

STARTCHAR isoEF
ENCODING 239
SWIDTH 427 0
DWIDTH 8 0
BBX 8 18 0 -2
BITMAP
00
00
00
78
40
70
40
78
00
1E
10
1C
10
10
00
00
00
00
ENDCHAR

STARTCHAR isoF0
ENCODING 240
SWIDTH 427 0
DWIDTH 8 0
BBX 8 18 0 -2
BITMAP
00
00
00
78
40
70
40
40
00
0C
12
12
12
0C
00
00
00
00
ENDCHAR

STARTCHAR isoF1
ENCODING 241
SWIDTH 427 0
DWIDTH 8 0
BBX 8 18 0 -2
BITMAP
00
00
00
78
40
70
40
40
00
04
0C
04
04
0E
00
00
00
00
ENDCHAR

STARTCHAR isoF2
ENCODING 242
SWIDTH 427 0
DWIDTH 8 0
BBX 8 18 0 -2
BITMAP
00
00
00
78
40
70
40
40
00
0C
12
04
08
1E
00
00
00
00
ENDCHAR

STARTCHAR isoF3
ENCODING 243
SWIDTH 427 0
DWIDTH 8 0
BBX 8 18 0 -2
BITMAP
00
00
00
78
40
70
40
40
00
1C
02
0C
02
1C
00
00
00
00
ENDCHAR

STARTCHAR isoF4
ENCODING 244
SWIDTH 427 0
DWIDTH 8 0
BBX 8 18 0 -2
BITMAP
00
00
00
78
40
70
40
40
00
14
14
1E
04
04
00
00
00
00
ENDCHAR

STARTCHAR isoF5
ENCODING 245
SWIDTH 427 0
DWIDTH 8 0
BBX 8 18 0 -2
BITMAP
00
00
00
78
40
70
40
40
00
1E
10
1C
02
1C
00
00
00
00
ENDCHAR

STARTCHAR isoF6
ENCODING 246
SWIDTH 427 0
DWIDTH 8 0
BBX 8 18 0 -2
BITMAP
00
00
00
78
40
70
40
40
00
0C
10
1C
12
0C
00
00
00
00
ENDCHAR

STARTCHAR isoF7
ENCODING 247
SWIDTH 427 0
DWIDTH 8 0
BBX 8 18 0 -2
BITMAP
00
00
00
78
40
70
40
40
00
1E
02
04
08
10
00
00
00
00
ENDCHAR

STARTCHAR isoF8
ENCODING 248
SWIDTH 427 0
DWIDTH 8 0
BBX 8 18 0 -2
BITMAP
00
00
00
78
40
70
40
40
00
0C
12
0C
12
0C
00
00
00
00
ENDCHAR

STARTCHAR isoF9
ENCODING 249
SWIDTH 427 0
DWIDTH 8 0
BBX 8 18 0 -2
BITMAP
00
00
00
78
40
70
40
40
00
0C
12
0E
02
0C
00
00
00
00
ENDCHAR

STARTCHAR isoFA
ENCODING 250
SWIDTH 427 0
DWIDTH 8 0
BBX 8 18 0 -2
BITMAP
00
00
00
78
40
70
40
40
00
0C
12
1E
12
12
00
00
00
00
ENDCHAR

STARTCHAR isoFB
ENCODING 251
SWIDTH 427 0
DWIDTH 8 0
BBX 8 18 0 -2
BITMAP
00
00
00
78
40
70
40
40
00
1C
12
1C
12
1C
00
00
00
00
ENDCHAR

STARTCHAR isoFC
ENCODING 252
SWIDTH 427 0
DWIDTH 8 0
BBX 8 18 0 -2
BITMAP
00
00
00
78
40
70
40
40
00
0E
10
10
10
0E
00
00
00
00
ENDCHAR

STARTCHAR isoFD
ENCODING 253
SWIDTH 427 0
DWIDTH 8 0
BBX 8 18 0 -2
BITMAP
00
00
00
78
40
70
40
40
00
1C
12
12
12
1C
00
00
00
00
ENDCHAR

STARTCHAR isoFE
ENCODING 254
SWIDTH 427 0
DWIDTH 8 0
BBX 8 18 0 -2
BITMAP
00
00
00
78
40
70
40
40
00
1E
10
1C
10
1E
00
00
00
00
ENDCHAR

STARTCHAR isoFF
ENCODING 255
SWIDTH 427 0
DWIDTH 8 0
BBX 8 18 0 -2
BITMAP
00
00
00
78
40
70
40
40
00
1E
10
1C
10
10
00
00
00
00
ENDCHAR
ENDFONT
